# xmcd
#
# Track frame offsets: 
#        150
#        13625
#        26490
#        39712
#        51697
#        66215
#        78717
#        90167
#        101622
#        114872
#        126962
#        138675
#        151282
#        163255
#        176642
#        188252
#        200072
#        211560
#        225010
#        237147
#        249710
#        262552
#
# Disc length: 3686 seconds
#
# Revision: 1
# Processed by: cddbd v1.5.2PL0 Copyright (c) Steve Scherf et al.
# Submitted via: ExactAudioCopy v0.99pb5
#
DISCID=1c0e6416
DTITLE=Various Artist - Rhythm and Blues All Stars vol2
DYEAR=1999
DGENRE=R&B
TTITLE0=Roy Brown - Good Rockin' Tonight
TTITLE1=Cousin Joe - Box Car Shorty and Peter Blue
TTITLE2=Mabel Scott - Just Give Me A Man
TTITLE3=Lowell Fulson - I Want To See My Baby
TTITLE4=Todd Roades and HO - Bell Boy Boogie
TTITLE5=Roy Milton and His Solid Senders - Big Fat Mama
TTITLE6=Andrew Tibbs - Drinking Ink Splink
TTITLE7=Bullmoose Jackson and His Buffalo Bearcats - Oh John
TTITLE8=Jimmy Liggins and His Drops Of Joy - I Can't Stop It
TTITLE9=Jim Wynn and His Groove Masters - Fat Meat
TTITLE10=Paul Williams Sextette - Waxie Maxie
TTITLE11=Jimmy Rising and Count Basie Orch - Money Is Honey
TTITLE12=Paul Gayten - Hey Little Girl
TTITLE13=Jimmy Witherspoon - Money'S Gettin' Cheaper
TTITLE14=Joe Turner - Low Down Dog
TTITLE15=Albinia Jones - Hey Little Boy
TTITLE16=Crown Prince Waterford - Move Your Hand Baby
TTITLE17=Pee Wee Crayton - Texas Hop
TTITLE18=King Perry - Keep A Dollar In Your Pocket
TTITLE19=Memphis Slim and The House Rockers - Rockin' The House
TTITLE20=Jimmy McCracklin - Rock And Rye
TTITLE21=Dick Davis and Sonny Thompson - Memphis Train
EXTD=william hale
EXTT0=
EXTT1=
EXTT2=
EXTT3=
EXTT4=
EXTT5=
EXTT6=
EXTT7=
EXTT8=
EXTT9=
EXTT10=
EXTT11=
EXTT12=
EXTT13=
EXTT14=
EXTT15=
EXTT16=
EXTT17=
EXTT18=
EXTT19=
EXTT20=
EXTT21=
PLAYORDER=
